<mxfile host="app.diagrams.net" modified="2021-06-21T14:51:11.045Z" agent="5.0 (Windows)" etag="1iXS8Ew49x_rEedUUpJb" version="14.8.0" type="github">
  <diagram id="JMZKOzMFYaSv1LzC-iQ0" name="Page-1">
    <mxGraphModel dx="1221" dy="631" grid="1" gridSize="10" guides="1" tooltips="1" connect="1" arrows="1" fold="1" page="1" pageScale="1" pageWidth="1654" pageHeight="1169" math="0" shadow="0">
      <root>
        <mxCell id="0" />
        <mxCell id="1" parent="0" />
        <mxCell id="7_BNMFUcq2cT86pOqFMh-7" value="" style="edgeStyle=orthogonalEdgeStyle;rounded=0;orthogonalLoop=1;jettySize=auto;html=1;" parent="1" source="7_BNMFUcq2cT86pOqFMh-1" target="7_BNMFUcq2cT86pOqFMh-3" edge="1">
          <mxGeometry relative="1" as="geometry" />
        </mxCell>
        <mxCell id="7_BNMFUcq2cT86pOqFMh-11" style="edgeStyle=orthogonalEdgeStyle;rounded=0;orthogonalLoop=1;jettySize=auto;html=1;" parent="1" source="7_BNMFUcq2cT86pOqFMh-1" target="7_BNMFUcq2cT86pOqFMh-2" edge="1">
          <mxGeometry relative="1" as="geometry" />
        </mxCell>
        <mxCell id="7_BNMFUcq2cT86pOqFMh-12" style="edgeStyle=orthogonalEdgeStyle;rounded=0;orthogonalLoop=1;jettySize=auto;html=1;entryX=0.5;entryY=0;entryDx=0;entryDy=0;" parent="1" source="7_BNMFUcq2cT86pOqFMh-1" target="7_BNMFUcq2cT86pOqFMh-4" edge="1">
          <mxGeometry relative="1" as="geometry" />
        </mxCell>
        <mxCell id="7_BNMFUcq2cT86pOqFMh-1" value="Хабр" style="rounded=0;whiteSpace=wrap;html=1;fillColor=#bac8d3;strokeColor=#23445d;" parent="1" vertex="1">
          <mxGeometry x="785" y="40" width="120" height="60" as="geometry" />
        </mxCell>
        <mxCell id="ZwUO_YCHKt58jKYv6OeR-14" style="edgeStyle=orthogonalEdgeStyle;rounded=0;orthogonalLoop=1;jettySize=auto;html=1;entryX=0.5;entryY=0;entryDx=0;entryDy=0;" edge="1" parent="1" source="7_BNMFUcq2cT86pOqFMh-2" target="ZwUO_YCHKt58jKYv6OeR-13">
          <mxGeometry relative="1" as="geometry" />
        </mxCell>
        <mxCell id="ZwUO_YCHKt58jKYv6OeR-16" style="edgeStyle=orthogonalEdgeStyle;rounded=0;orthogonalLoop=1;jettySize=auto;html=1;entryX=0.5;entryY=0;entryDx=0;entryDy=0;" edge="1" parent="1" source="7_BNMFUcq2cT86pOqFMh-2" target="ZwUO_YCHKt58jKYv6OeR-15">
          <mxGeometry relative="1" as="geometry" />
        </mxCell>
        <mxCell id="7_BNMFUcq2cT86pOqFMh-2" value="Страницы сайта" style="rounded=0;whiteSpace=wrap;html=1;fillColor=#f8cecc;strokeColor=#b85450;" parent="1" vertex="1">
          <mxGeometry x="350" y="120" width="120" height="60" as="geometry" />
        </mxCell>
        <mxCell id="ZwUO_YCHKt58jKYv6OeR-1" style="edgeStyle=orthogonalEdgeStyle;rounded=0;orthogonalLoop=1;jettySize=auto;html=1;" edge="1" parent="1" source="7_BNMFUcq2cT86pOqFMh-3" target="ZwUO_YCHKt58jKYv6OeR-2">
          <mxGeometry relative="1" as="geometry">
            <mxPoint x="730" y="230" as="targetPoint" />
          </mxGeometry>
        </mxCell>
        <mxCell id="ZwUO_YCHKt58jKYv6OeR-4" style="edgeStyle=orthogonalEdgeStyle;rounded=0;orthogonalLoop=1;jettySize=auto;html=1;entryX=0.5;entryY=0;entryDx=0;entryDy=0;" edge="1" parent="1" source="7_BNMFUcq2cT86pOqFMh-3" target="ZwUO_YCHKt58jKYv6OeR-3">
          <mxGeometry relative="1" as="geometry" />
        </mxCell>
        <mxCell id="ZwUO_YCHKt58jKYv6OeR-10" value="" style="edgeStyle=orthogonalEdgeStyle;rounded=0;orthogonalLoop=1;jettySize=auto;html=1;" edge="1" parent="1" source="7_BNMFUcq2cT86pOqFMh-3" target="ZwUO_YCHKt58jKYv6OeR-9">
          <mxGeometry relative="1" as="geometry" />
        </mxCell>
        <mxCell id="ZwUO_YCHKt58jKYv6OeR-48" style="edgeStyle=orthogonalEdgeStyle;rounded=0;orthogonalLoop=1;jettySize=auto;html=1;" edge="1" parent="1" source="7_BNMFUcq2cT86pOqFMh-3" target="ZwUO_YCHKt58jKYv6OeR-49">
          <mxGeometry relative="1" as="geometry">
            <mxPoint x="900" y="220" as="targetPoint" />
          </mxGeometry>
        </mxCell>
        <mxCell id="7_BNMFUcq2cT86pOqFMh-3" value="личный кабинет" style="rounded=0;whiteSpace=wrap;html=1;fillColor=#fad9d5;strokeColor=#ae4132;" parent="1" vertex="1">
          <mxGeometry x="785" y="120" width="120" height="60" as="geometry" />
        </mxCell>
        <mxCell id="ZwUO_YCHKt58jKYv6OeR-7" style="edgeStyle=orthogonalEdgeStyle;rounded=0;orthogonalLoop=1;jettySize=auto;html=1;" edge="1" parent="1" source="7_BNMFUcq2cT86pOqFMh-4" target="ZwUO_YCHKt58jKYv6OeR-8">
          <mxGeometry relative="1" as="geometry">
            <mxPoint x="1200" y="200" as="targetPoint" />
          </mxGeometry>
        </mxCell>
        <mxCell id="ZwUO_YCHKt58jKYv6OeR-11" style="edgeStyle=orthogonalEdgeStyle;rounded=0;orthogonalLoop=1;jettySize=auto;html=1;" edge="1" parent="1" source="7_BNMFUcq2cT86pOqFMh-4" target="ZwUO_YCHKt58jKYv6OeR-12">
          <mxGeometry relative="1" as="geometry">
            <mxPoint x="1280" y="210" as="targetPoint" />
          </mxGeometry>
        </mxCell>
        <mxCell id="7_BNMFUcq2cT86pOqFMh-4" value="администрирование" style="rounded=0;whiteSpace=wrap;html=1;fillColor=#fad9d5;strokeColor=#ae4132;" parent="1" vertex="1">
          <mxGeometry x="1270" y="120" width="120" height="60" as="geometry" />
        </mxCell>
        <mxCell id="ZwUO_YCHKt58jKYv6OeR-25" value="" style="edgeStyle=orthogonalEdgeStyle;rounded=0;orthogonalLoop=1;jettySize=auto;html=1;" edge="1" parent="1" source="ZwUO_YCHKt58jKYv6OeR-2" target="ZwUO_YCHKt58jKYv6OeR-24">
          <mxGeometry relative="1" as="geometry" />
        </mxCell>
        <mxCell id="ZwUO_YCHKt58jKYv6OeR-31" style="edgeStyle=orthogonalEdgeStyle;rounded=0;orthogonalLoop=1;jettySize=auto;html=1;" edge="1" parent="1" source="ZwUO_YCHKt58jKYv6OeR-2" target="ZwUO_YCHKt58jKYv6OeR-24">
          <mxGeometry relative="1" as="geometry" />
        </mxCell>
        <mxCell id="ZwUO_YCHKt58jKYv6OeR-2" value="незарегистрированный пользователь" style="rounded=0;whiteSpace=wrap;html=1;fillColor=#ffe6cc;strokeColor=#d79b00;" vertex="1" parent="1">
          <mxGeometry x="530" y="220" width="145" height="60" as="geometry" />
        </mxCell>
        <mxCell id="ZwUO_YCHKt58jKYv6OeR-27" value="" style="edgeStyle=orthogonalEdgeStyle;rounded=0;orthogonalLoop=1;jettySize=auto;html=1;" edge="1" parent="1" source="ZwUO_YCHKt58jKYv6OeR-3" target="ZwUO_YCHKt58jKYv6OeR-26">
          <mxGeometry relative="1" as="geometry" />
        </mxCell>
        <mxCell id="ZwUO_YCHKt58jKYv6OeR-28" value="" style="edgeStyle=orthogonalEdgeStyle;rounded=0;orthogonalLoop=1;jettySize=auto;html=1;" edge="1" parent="1" source="ZwUO_YCHKt58jKYv6OeR-3" target="ZwUO_YCHKt58jKYv6OeR-29">
          <mxGeometry relative="1" as="geometry">
            <mxPoint x="940" y="320" as="targetPoint" />
          </mxGeometry>
        </mxCell>
        <mxCell id="ZwUO_YCHKt58jKYv6OeR-3" value="зарегистрированный пользователь" style="rounded=0;whiteSpace=wrap;html=1;fillColor=#d5e8d4;strokeColor=#82b366;" vertex="1" parent="1">
          <mxGeometry x="720" y="220" width="120" height="60" as="geometry" />
        </mxCell>
        <mxCell id="ZwUO_YCHKt58jKYv6OeR-53" value="" style="edgeStyle=orthogonalEdgeStyle;rounded=0;orthogonalLoop=1;jettySize=auto;html=1;" edge="1" parent="1" source="ZwUO_YCHKt58jKYv6OeR-8" target="ZwUO_YCHKt58jKYv6OeR-52">
          <mxGeometry relative="1" as="geometry" />
        </mxCell>
        <mxCell id="ZwUO_YCHKt58jKYv6OeR-8" value="модератор" style="rounded=0;whiteSpace=wrap;html=1;fillColor=#a20025;strokeColor=#6F0000;fontColor=#ffffff;" vertex="1" parent="1">
          <mxGeometry x="1200" y="220" width="120" height="60" as="geometry" />
        </mxCell>
        <mxCell id="ZwUO_YCHKt58jKYv6OeR-9" value="???" style="whiteSpace=wrap;html=1;rounded=0;" vertex="1" parent="1">
          <mxGeometry x="1050" y="190" width="70" height="60" as="geometry" />
        </mxCell>
        <mxCell id="ZwUO_YCHKt58jKYv6OeR-12" value="???" style="rounded=0;whiteSpace=wrap;html=1;" vertex="1" parent="1">
          <mxGeometry x="1360" y="220" width="120" height="60" as="geometry" />
        </mxCell>
        <mxCell id="ZwUO_YCHKt58jKYv6OeR-18" value="" style="edgeStyle=orthogonalEdgeStyle;rounded=0;orthogonalLoop=1;jettySize=auto;html=1;" edge="1" parent="1" source="ZwUO_YCHKt58jKYv6OeR-13" target="ZwUO_YCHKt58jKYv6OeR-17">
          <mxGeometry relative="1" as="geometry" />
        </mxCell>
        <mxCell id="ZwUO_YCHKt58jKYv6OeR-13" value="незарегистрированный пользователь" style="rounded=0;whiteSpace=wrap;html=1;fillColor=#ffe6cc;strokeColor=#d79b00;" vertex="1" parent="1">
          <mxGeometry x="100" y="200" width="145" height="60" as="geometry" />
        </mxCell>
        <mxCell id="ZwUO_YCHKt58jKYv6OeR-20" value="" style="edgeStyle=orthogonalEdgeStyle;rounded=0;orthogonalLoop=1;jettySize=auto;html=1;entryX=0.896;entryY=-0.061;entryDx=0;entryDy=0;entryPerimeter=0;" edge="1" parent="1" source="ZwUO_YCHKt58jKYv6OeR-15" target="ZwUO_YCHKt58jKYv6OeR-17">
          <mxGeometry relative="1" as="geometry" />
        </mxCell>
        <mxCell id="ZwUO_YCHKt58jKYv6OeR-22" value="" style="edgeStyle=orthogonalEdgeStyle;rounded=0;orthogonalLoop=1;jettySize=auto;html=1;" edge="1" parent="1" source="ZwUO_YCHKt58jKYv6OeR-15" target="ZwUO_YCHKt58jKYv6OeR-21">
          <mxGeometry relative="1" as="geometry" />
        </mxCell>
        <mxCell id="ZwUO_YCHKt58jKYv6OeR-15" value="зарегистрированный пользователь" style="rounded=0;whiteSpace=wrap;html=1;fillColor=#d5e8d4;strokeColor=#82b366;" vertex="1" parent="1">
          <mxGeometry x="340" y="200" width="120" height="60" as="geometry" />
        </mxCell>
        <mxCell id="ZwUO_YCHKt58jKYv6OeR-43" value="" style="edgeStyle=orthogonalEdgeStyle;rounded=0;orthogonalLoop=1;jettySize=auto;html=1;" edge="1" parent="1" source="ZwUO_YCHKt58jKYv6OeR-17" target="ZwUO_YCHKt58jKYv6OeR-42">
          <mxGeometry relative="1" as="geometry" />
        </mxCell>
        <mxCell id="ZwUO_YCHKt58jKYv6OeR-17" value="просмотр страниц" style="whiteSpace=wrap;html=1;rounded=0;" vertex="1" parent="1">
          <mxGeometry x="180" y="300" width="120" height="60" as="geometry" />
        </mxCell>
        <mxCell id="ZwUO_YCHKt58jKYv6OeR-45" value="" style="edgeStyle=orthogonalEdgeStyle;rounded=0;orthogonalLoop=1;jettySize=auto;html=1;" edge="1" parent="1" source="ZwUO_YCHKt58jKYv6OeR-21" target="ZwUO_YCHKt58jKYv6OeR-44">
          <mxGeometry relative="1" as="geometry" />
        </mxCell>
        <mxCell id="ZwUO_YCHKt58jKYv6OeR-21" value="возможность оценки, комментарии" style="whiteSpace=wrap;html=1;rounded=0;" vertex="1" parent="1">
          <mxGeometry x="330" y="300" width="120" height="60" as="geometry" />
        </mxCell>
        <mxCell id="ZwUO_YCHKt58jKYv6OeR-34" value="" style="edgeStyle=orthogonalEdgeStyle;rounded=0;orthogonalLoop=1;jettySize=auto;html=1;" edge="1" parent="1" source="ZwUO_YCHKt58jKYv6OeR-24" target="ZwUO_YCHKt58jKYv6OeR-33">
          <mxGeometry relative="1" as="geometry" />
        </mxCell>
        <mxCell id="ZwUO_YCHKt58jKYv6OeR-24" value="регистрация" style="whiteSpace=wrap;html=1;rounded=0;" vertex="1" parent="1">
          <mxGeometry x="542.5" y="320" width="120" height="60" as="geometry" />
        </mxCell>
        <mxCell id="ZwUO_YCHKt58jKYv6OeR-39" value="" style="edgeStyle=orthogonalEdgeStyle;rounded=0;orthogonalLoop=1;jettySize=auto;html=1;" edge="1" parent="1" source="ZwUO_YCHKt58jKYv6OeR-26" target="ZwUO_YCHKt58jKYv6OeR-38">
          <mxGeometry relative="1" as="geometry" />
        </mxCell>
        <mxCell id="ZwUO_YCHKt58jKYv6OeR-26" value="профиль" style="whiteSpace=wrap;html=1;rounded=0;" vertex="1" parent="1">
          <mxGeometry x="680" y="320" width="80" height="60" as="geometry" />
        </mxCell>
        <mxCell id="ZwUO_YCHKt58jKYv6OeR-47" value="" style="edgeStyle=orthogonalEdgeStyle;rounded=0;orthogonalLoop=1;jettySize=auto;html=1;" edge="1" parent="1" source="ZwUO_YCHKt58jKYv6OeR-29" target="ZwUO_YCHKt58jKYv6OeR-46">
          <mxGeometry relative="1" as="geometry" />
        </mxCell>
        <mxCell id="ZwUO_YCHKt58jKYv6OeR-29" value="&lt;div&gt;личные статьи&lt;br&gt;&lt;/div&gt;" style="rounded=0;whiteSpace=wrap;html=1;" vertex="1" parent="1">
          <mxGeometry x="785" y="320" width="70" height="60" as="geometry" />
        </mxCell>
        <mxCell id="ZwUO_YCHKt58jKYv6OeR-33" value="&lt;div&gt;Переход на страницу регистрации.&lt;/div&gt;&lt;div&gt;Регистрация.&lt;br&gt;&lt;/div&gt;" style="whiteSpace=wrap;html=1;rounded=0;fillColor=#e3c800;strokeColor=#B09500;fontColor=#000000;" vertex="1" parent="1">
          <mxGeometry x="520" y="480" width="120" height="60" as="geometry" />
        </mxCell>
        <mxCell id="ZwUO_YCHKt58jKYv6OeR-41" value="" style="edgeStyle=orthogonalEdgeStyle;rounded=0;orthogonalLoop=1;jettySize=auto;html=1;" edge="1" parent="1" source="ZwUO_YCHKt58jKYv6OeR-38" target="ZwUO_YCHKt58jKYv6OeR-40">
          <mxGeometry relative="1" as="geometry" />
        </mxCell>
        <mxCell id="ZwUO_YCHKt58jKYv6OeR-38" value="личные данные" style="whiteSpace=wrap;html=1;rounded=0;" vertex="1" parent="1">
          <mxGeometry x="680" y="400" width="80" height="60" as="geometry" />
        </mxCell>
        <mxCell id="ZwUO_YCHKt58jKYv6OeR-40" value="заполнение и редактирование личных данных" style="whiteSpace=wrap;html=1;rounded=0;fillColor=#e3c800;strokeColor=#B09500;fontColor=#000000;" vertex="1" parent="1">
          <mxGeometry x="660" y="480" width="120" height="60" as="geometry" />
        </mxCell>
        <mxCell id="ZwUO_YCHKt58jKYv6OeR-42" value="возможность просмотра страниц - главная страница, меню..." style="whiteSpace=wrap;html=1;rounded=0;fillColor=#e3c800;strokeColor=#B09500;fontColor=#000000;" vertex="1" parent="1">
          <mxGeometry x="180" y="480" width="120" height="60" as="geometry" />
        </mxCell>
        <mxCell id="ZwUO_YCHKt58jKYv6OeR-44" value="возможность ставить оценки и оставлять комментарии" style="whiteSpace=wrap;html=1;rounded=0;fillColor=#e3c800;strokeColor=#B09500;fontColor=#000000;" vertex="1" parent="1">
          <mxGeometry x="330" y="480" width="120" height="60" as="geometry" />
        </mxCell>
        <mxCell id="ZwUO_YCHKt58jKYv6OeR-46" value="&lt;div&gt;просмотр личных статей, редактирование&lt;br&gt;&lt;/div&gt;" style="whiteSpace=wrap;html=1;rounded=0;fillColor=#e3c800;strokeColor=#B09500;fontColor=#000000;" vertex="1" parent="1">
          <mxGeometry x="790" y="480" width="120" height="60" as="geometry" />
        </mxCell>
        <mxCell id="ZwUO_YCHKt58jKYv6OeR-51" value="" style="edgeStyle=orthogonalEdgeStyle;rounded=0;orthogonalLoop=1;jettySize=auto;html=1;" edge="1" parent="1" source="ZwUO_YCHKt58jKYv6OeR-49" target="ZwUO_YCHKt58jKYv6OeR-50">
          <mxGeometry relative="1" as="geometry" />
        </mxCell>
        <mxCell id="ZwUO_YCHKt58jKYv6OeR-49" value="авторизация" style="rounded=0;whiteSpace=wrap;html=1;fillColor=#d5e8d4;strokeColor=#82b366;" vertex="1" parent="1">
          <mxGeometry x="880" y="220" width="95" height="60" as="geometry" />
        </mxCell>
        <mxCell id="ZwUO_YCHKt58jKYv6OeR-50" value="возможность авторизации" style="whiteSpace=wrap;html=1;rounded=0;fillColor=#e3c800;strokeColor=#B09500;fontColor=#000000;" vertex="1" parent="1">
          <mxGeometry x="930" y="480" width="120" height="60" as="geometry" />
        </mxCell>
        <mxCell id="ZwUO_YCHKt58jKYv6OeR-52" value="цензура статей, добавление или удаление пользователя" style="whiteSpace=wrap;html=1;rounded=0;fillColor=#e3c800;strokeColor=#B09500;fontColor=#000000;" vertex="1" parent="1">
          <mxGeometry x="1175" y="480" width="170" height="60" as="geometry" />
        </mxCell>
      </root>
    </mxGraphModel>
  </diagram>
</mxfile>
